<mxfile host="app.diagrams.net" modified="2023-11-07T08:19:24.925Z" agent="Mozilla/5.0 (Macintosh; Intel Mac OS X 10_15_7) AppleWebKit/537.36 (KHTML, like Gecko) Chrome/119.0.0.0 Safari/537.36" etag="VGJeIM8B9dCfjrZKB1jf" version="21.8.2" type="device">
  <diagram name="Page-1" id="Om9ngsFZ-jg4zTx8so9r">
    <mxGraphModel dx="1466" dy="786" grid="1" gridSize="10" guides="1" tooltips="1" connect="1" arrows="1" fold="1" page="1" pageScale="1" pageWidth="1169" pageHeight="827" math="0" shadow="0">
      <root>
        <mxCell id="0" />
        <mxCell id="1" parent="0" />
        <mxCell id="rcUIBdEVP40TPVUALTPT-1" value="Payment Service Provider" style="rounded=0;whiteSpace=wrap;html=1;verticalAlign=top;align=left;fontSize=16;movable=1;resizable=1;rotatable=1;deletable=1;editable=1;locked=0;connectable=1;" vertex="1" parent="1">
          <mxGeometry x="139" y="50" width="840" height="760" as="geometry" />
        </mxCell>
        <mxCell id="rcUIBdEVP40TPVUALTPT-3" value="Payment Gateway" style="outlineConnect=0;dashed=0;verticalLabelPosition=bottom;verticalAlign=top;align=center;html=1;shape=mxgraph.aws3.office_building;fillColor=#7D7C7C;gradientColor=none;" vertex="1" parent="1">
          <mxGeometry x="1050.5" y="237" width="33" height="79.5" as="geometry" />
        </mxCell>
        <mxCell id="rcUIBdEVP40TPVUALTPT-7" style="edgeStyle=orthogonalEdgeStyle;rounded=0;orthogonalLoop=1;jettySize=auto;html=1;verticalAlign=top;" edge="1" parent="1" source="rcUIBdEVP40TPVUALTPT-4" target="rcUIBdEVP40TPVUALTPT-5">
          <mxGeometry relative="1" as="geometry" />
        </mxCell>
        <mxCell id="rcUIBdEVP40TPVUALTPT-4" value="Acquiring Bank" style="image;points=[];aspect=fixed;html=1;align=center;shadow=0;dashed=0;image=img/lib/allied_telesis/buildings/Large_Building.svg;" vertex="1" parent="1">
          <mxGeometry x="1030.5" y="361" width="75" height="75" as="geometry" />
        </mxCell>
        <mxCell id="rcUIBdEVP40TPVUALTPT-5" value="Issuing Bank" style="image;points=[];aspect=fixed;html=1;align=center;shadow=0;dashed=0;image=img/lib/allied_telesis/buildings/Large_Building.svg;" vertex="1" parent="1">
          <mxGeometry x="1029.5" y="502" width="75" height="75" as="geometry" />
        </mxCell>
        <mxCell id="rcUIBdEVP40TPVUALTPT-6" style="edgeStyle=orthogonalEdgeStyle;rounded=0;orthogonalLoop=1;jettySize=auto;html=1;entryX=0.482;entryY=0.025;entryDx=0;entryDy=0;entryPerimeter=0;" edge="1" parent="1" source="rcUIBdEVP40TPVUALTPT-3" target="rcUIBdEVP40TPVUALTPT-4">
          <mxGeometry relative="1" as="geometry" />
        </mxCell>
        <mxCell id="rcUIBdEVP40TPVUALTPT-16" style="edgeStyle=orthogonalEdgeStyle;rounded=0;orthogonalLoop=1;jettySize=auto;html=1;entryX=0.5;entryY=1;entryDx=0;entryDy=0;" edge="1" parent="1" source="rcUIBdEVP40TPVUALTPT-11" target="rcUIBdEVP40TPVUALTPT-12">
          <mxGeometry relative="1" as="geometry" />
        </mxCell>
        <mxCell id="rcUIBdEVP40TPVUALTPT-11" value="" style="image;html=1;image=img/lib/clip_art/finance/Credit_Card_128x128.png" vertex="1" parent="1">
          <mxGeometry x="40" y="359" width="80" height="80" as="geometry" />
        </mxCell>
        <mxCell id="rcUIBdEVP40TPVUALTPT-32" value="" style="edgeStyle=orthogonalEdgeStyle;rounded=0;orthogonalLoop=1;jettySize=auto;html=1;" edge="1" parent="1" source="rcUIBdEVP40TPVUALTPT-12" target="rcUIBdEVP40TPVUALTPT-15">
          <mxGeometry relative="1" as="geometry" />
        </mxCell>
        <mxCell id="rcUIBdEVP40TPVUALTPT-12" value="" style="image;html=1;image=img/lib/clip_art/finance/Shopping_Cart_128x128.png" vertex="1" parent="1">
          <mxGeometry x="40" y="236" width="80" height="80" as="geometry" />
        </mxCell>
        <mxCell id="rcUIBdEVP40TPVUALTPT-38" style="edgeStyle=orthogonalEdgeStyle;rounded=0;orthogonalLoop=1;jettySize=auto;html=1;" edge="1" parent="1" source="rcUIBdEVP40TPVUALTPT-15" target="rcUIBdEVP40TPVUALTPT-25">
          <mxGeometry relative="1" as="geometry" />
        </mxCell>
        <mxCell id="rcUIBdEVP40TPVUALTPT-15" value="" style="image;sketch=0;aspect=fixed;html=1;points=[];align=center;fontSize=12;image=img/lib/mscae/Web_App_Firewall.svg;" vertex="1" parent="1">
          <mxGeometry x="182" y="247" width="58" height="58" as="geometry" />
        </mxCell>
        <mxCell id="rcUIBdEVP40TPVUALTPT-23" style="edgeStyle=orthogonalEdgeStyle;rounded=0;orthogonalLoop=1;jettySize=auto;html=1;exitX=0.5;exitY=0;exitDx=0;exitDy=0;exitPerimeter=0;" edge="1" parent="1" source="rcUIBdEVP40TPVUALTPT-20" target="rcUIBdEVP40TPVUALTPT-22">
          <mxGeometry relative="1" as="geometry">
            <Array as="points">
              <mxPoint x="211" y="100" />
            </Array>
          </mxGeometry>
        </mxCell>
        <mxCell id="rcUIBdEVP40TPVUALTPT-20" value="" style="verticalLabelPosition=bottom;sketch=0;html=1;fillColor=#6ABD46;strokeColor=#ffffff;verticalAlign=top;align=center;points=[[0.085,0.085,0],[0.915,0.085,0],[0.915,0.915,0],[0.085,0.915,0],[0.25,0,0],[0.5,0,0],[0.75,0,0],[1,0.25,0],[1,0.5,0],[1,0.75,0],[0.75,1,0],[0.5,1,0],[0.25,1,0],[0,0.75,0],[0,0.5,0],[0,0.25,0]];pointerEvents=1;shape=mxgraph.cisco_safe.compositeIcon;bgIcon=mxgraph.cisco_safe.architecture.generic_appliance;resIcon=mxgraph.cisco_safe.architecture.intrusion_detection;" vertex="1" parent="1">
          <mxGeometry x="186" y="154" width="50" height="50" as="geometry" />
        </mxCell>
        <mxCell id="rcUIBdEVP40TPVUALTPT-21" style="edgeStyle=orthogonalEdgeStyle;rounded=0;orthogonalLoop=1;jettySize=auto;html=1;entryX=0.5;entryY=1;entryDx=0;entryDy=0;entryPerimeter=0;" edge="1" parent="1" source="rcUIBdEVP40TPVUALTPT-15" target="rcUIBdEVP40TPVUALTPT-20">
          <mxGeometry relative="1" as="geometry" />
        </mxCell>
        <mxCell id="rcUIBdEVP40TPVUALTPT-24" value="IDS" style="edgeLabel;html=1;align=center;verticalAlign=middle;resizable=0;points=[];" vertex="1" connectable="0" parent="rcUIBdEVP40TPVUALTPT-21">
          <mxGeometry x="-0.0299" y="-1" relative="1" as="geometry">
            <mxPoint y="1" as="offset" />
          </mxGeometry>
        </mxCell>
        <mxCell id="rcUIBdEVP40TPVUALTPT-22" value="IDS" style="sketch=0;outlineConnect=0;fontColor=#232F3E;gradientColor=none;strokeColor=#232F3E;fillColor=#ffffff;dashed=0;verticalLabelPosition=bottom;verticalAlign=top;align=center;html=1;fontSize=12;fontStyle=0;aspect=fixed;shape=mxgraph.aws4.resourceIcon;resIcon=mxgraph.aws4.office_building;" vertex="1" parent="1">
          <mxGeometry x="1037.5" y="68" width="60" height="60" as="geometry" />
        </mxCell>
        <mxCell id="rcUIBdEVP40TPVUALTPT-27" style="edgeStyle=orthogonalEdgeStyle;rounded=0;orthogonalLoop=1;jettySize=auto;html=1;" edge="1" parent="1" source="rcUIBdEVP40TPVUALTPT-25" target="rcUIBdEVP40TPVUALTPT-26">
          <mxGeometry relative="1" as="geometry" />
        </mxCell>
        <mxCell id="rcUIBdEVP40TPVUALTPT-100" value="" style="edgeStyle=orthogonalEdgeStyle;rounded=0;orthogonalLoop=1;jettySize=auto;html=1;" edge="1" parent="1" source="rcUIBdEVP40TPVUALTPT-25" target="rcUIBdEVP40TPVUALTPT-95">
          <mxGeometry relative="1" as="geometry" />
        </mxCell>
        <mxCell id="rcUIBdEVP40TPVUALTPT-25" value="" style="outlineConnect=0;dashed=0;verticalLabelPosition=bottom;verticalAlign=top;align=center;html=1;shape=mxgraph.aws3.api_gateway;fillColor=#D9A741;gradientColor=none;" vertex="1" parent="1">
          <mxGeometry x="290" y="230" width="76.5" height="93" as="geometry" />
        </mxCell>
        <mxCell id="rcUIBdEVP40TPVUALTPT-26" value="" style="image;aspect=fixed;html=1;points=[];align=center;fontSize=12;image=img/lib/azure2/app_services/App_Service_Certificates.svg;" vertex="1" parent="1">
          <mxGeometry x="394" y="244.5" width="70" height="64" as="geometry" />
        </mxCell>
        <mxCell id="rcUIBdEVP40TPVUALTPT-35" value="" style="edgeStyle=orthogonalEdgeStyle;rounded=0;orthogonalLoop=1;jettySize=auto;html=1;" edge="1" parent="1" source="rcUIBdEVP40TPVUALTPT-28" target="rcUIBdEVP40TPVUALTPT-34">
          <mxGeometry relative="1" as="geometry" />
        </mxCell>
        <mxCell id="rcUIBdEVP40TPVUALTPT-37" style="edgeStyle=orthogonalEdgeStyle;rounded=0;orthogonalLoop=1;jettySize=auto;html=1;" edge="1" parent="1" source="rcUIBdEVP40TPVUALTPT-28" target="rcUIBdEVP40TPVUALTPT-26">
          <mxGeometry relative="1" as="geometry" />
        </mxCell>
        <mxCell id="rcUIBdEVP40TPVUALTPT-28" value="" style="verticalLabelPosition=bottom;html=1;verticalAlign=top;align=center;strokeColor=none;fillColor=#00BEF2;shape=mxgraph.azure.azure_cache;" vertex="1" parent="1">
          <mxGeometry x="306" y="367" width="45" height="50" as="geometry" />
        </mxCell>
        <mxCell id="rcUIBdEVP40TPVUALTPT-33" style="edgeStyle=orthogonalEdgeStyle;rounded=0;orthogonalLoop=1;jettySize=auto;html=1;entryX=0.5;entryY=0;entryDx=0;entryDy=0;entryPerimeter=0;" edge="1" parent="1" source="rcUIBdEVP40TPVUALTPT-25" target="rcUIBdEVP40TPVUALTPT-28">
          <mxGeometry relative="1" as="geometry" />
        </mxCell>
        <mxCell id="rcUIBdEVP40TPVUALTPT-34" value="" style="verticalLabelPosition=bottom;html=1;verticalAlign=top;align=center;strokeColor=none;fillColor=#00BEF2;shape=mxgraph.azure.storage_blob;" vertex="1" parent="1">
          <mxGeometry x="303" y="470" width="50" height="45" as="geometry" />
        </mxCell>
        <mxCell id="rcUIBdEVP40TPVUALTPT-66" style="edgeStyle=orthogonalEdgeStyle;rounded=0;orthogonalLoop=1;jettySize=auto;html=1;exitX=0.5;exitY=1;exitDx=0;exitDy=0;exitPerimeter=0;entryX=0;entryY=0.5;entryDx=0;entryDy=0;" edge="1" parent="1" target="rcUIBdEVP40TPVUALTPT-58">
          <mxGeometry relative="1" as="geometry">
            <mxPoint x="714.5" y="217" as="sourcePoint" />
            <mxPoint x="770" y="290" as="targetPoint" />
            <Array as="points">
              <mxPoint x="715" y="363" />
            </Array>
          </mxGeometry>
        </mxCell>
        <mxCell id="rcUIBdEVP40TPVUALTPT-106" style="edgeStyle=orthogonalEdgeStyle;rounded=0;orthogonalLoop=1;jettySize=auto;html=1;entryX=0;entryY=0.5;entryDx=0;entryDy=0;" edge="1" parent="1" source="rcUIBdEVP40TPVUALTPT-39" target="rcUIBdEVP40TPVUALTPT-58">
          <mxGeometry relative="1" as="geometry">
            <Array as="points">
              <mxPoint x="715" y="362" />
            </Array>
          </mxGeometry>
        </mxCell>
        <mxCell id="rcUIBdEVP40TPVUALTPT-39" value="" style="outlineConnect=0;dashed=0;verticalLabelPosition=bottom;verticalAlign=top;align=center;html=1;shape=mxgraph.aws3.application_load_balancer;fillColor=#F58536;gradientColor=none;" vertex="1" parent="1">
          <mxGeometry x="680" y="123" width="69" height="72" as="geometry" />
        </mxCell>
        <mxCell id="rcUIBdEVP40TPVUALTPT-55" value="" style="group" vertex="1" connectable="0" parent="1">
          <mxGeometry x="510" y="240" width="430" height="265" as="geometry" />
        </mxCell>
        <mxCell id="rcUIBdEVP40TPVUALTPT-93" value="VNET" style="rounded=0;whiteSpace=wrap;html=1;verticalAlign=top;align=left;fillColor=#dae8fc;strokeColor=#6c8ebf;" vertex="1" parent="rcUIBdEVP40TPVUALTPT-55">
          <mxGeometry x="-20" y="-20" width="450" height="274.81" as="geometry" />
        </mxCell>
        <mxCell id="rcUIBdEVP40TPVUALTPT-41" value="PUBLIC" style="rounded=0;whiteSpace=wrap;html=1;verticalAlign=top;align=left;" vertex="1" parent="rcUIBdEVP40TPVUALTPT-55">
          <mxGeometry width="150" height="86.63461538461539" as="geometry" />
        </mxCell>
        <mxCell id="rcUIBdEVP40TPVUALTPT-43" value="PRIVATE" style="rounded=0;whiteSpace=wrap;html=1;verticalAlign=top;align=left;" vertex="1" parent="rcUIBdEVP40TPVUALTPT-55">
          <mxGeometry y="76.44230769230771" width="150" height="86.63461538461539" as="geometry" />
        </mxCell>
        <mxCell id="rcUIBdEVP40TPVUALTPT-44" value="PRIVATE" style="rounded=0;whiteSpace=wrap;html=1;verticalAlign=top;align=left;" vertex="1" parent="rcUIBdEVP40TPVUALTPT-55">
          <mxGeometry y="163.07692307692307" width="150" height="86.63461538461539" as="geometry" />
        </mxCell>
        <mxCell id="rcUIBdEVP40TPVUALTPT-45" value="" style="outlineConnect=0;dashed=0;verticalLabelPosition=bottom;verticalAlign=top;align=center;html=1;shape=mxgraph.aws3.vpn_gateway;fillColor=#F58534;gradientColor=none;" vertex="1" parent="rcUIBdEVP40TPVUALTPT-55">
          <mxGeometry x="55" y="14.778846153846155" width="39" height="36.69230769230769" as="geometry" />
        </mxCell>
        <mxCell id="rcUIBdEVP40TPVUALTPT-46" value="" style="shape=process;whiteSpace=wrap;html=1;backgroundOutline=1;" vertex="1" parent="rcUIBdEVP40TPVUALTPT-55">
          <mxGeometry x="25" y="116.19230769230771" width="30" height="19.365384615384617" as="geometry" />
        </mxCell>
        <mxCell id="rcUIBdEVP40TPVUALTPT-47" value="" style="shape=process;whiteSpace=wrap;html=1;backgroundOutline=1;" vertex="1" parent="rcUIBdEVP40TPVUALTPT-55">
          <mxGeometry x="75" y="116.19230769230771" width="30" height="19.365384615384617" as="geometry" />
        </mxCell>
        <mxCell id="rcUIBdEVP40TPVUALTPT-48" value="" style="sketch=0;outlineConnect=0;fontColor=#232F3E;gradientColor=none;fillColor=#C925D1;strokeColor=none;dashed=0;verticalLabelPosition=bottom;verticalAlign=top;align=center;html=1;fontSize=12;fontStyle=0;aspect=fixed;pointerEvents=1;shape=mxgraph.aws4.cache_node;" vertex="1" parent="rcUIBdEVP40TPVUALTPT-55">
          <mxGeometry x="8" y="201.8076923076923" width="25.961538461538463" height="25.961538461538463" as="geometry" />
        </mxCell>
        <mxCell id="rcUIBdEVP40TPVUALTPT-49" value="" style="strokeWidth=2;html=1;shape=mxgraph.flowchart.database;whiteSpace=wrap;" vertex="1" parent="rcUIBdEVP40TPVUALTPT-55">
          <mxGeometry x="47" y="194.67307692307693" width="30" height="40.76923076923077" as="geometry" />
        </mxCell>
        <mxCell id="rcUIBdEVP40TPVUALTPT-52" value="Security" style="html=1;whiteSpace=wrap;strokeColor=none;fillColor=#0079D6;labelPosition=center;verticalLabelPosition=middle;verticalAlign=top;align=center;fontSize=12;outlineConnect=0;spacingTop=-6;fontColor=#FFFFFF;sketch=0;shape=mxgraph.sitemap.security;" vertex="1" parent="rcUIBdEVP40TPVUALTPT-55">
          <mxGeometry x="85" y="193.65384615384616" width="55" height="40.76923076923077" as="geometry" />
        </mxCell>
        <mxCell id="rcUIBdEVP40TPVUALTPT-56" value="" style="group" vertex="1" connectable="0" parent="1">
          <mxGeometry x="772" y="245" width="150" height="245" as="geometry" />
        </mxCell>
        <mxCell id="rcUIBdEVP40TPVUALTPT-57" value="PUBLIC" style="rounded=0;whiteSpace=wrap;html=1;verticalAlign=top;align=left;" vertex="1" parent="rcUIBdEVP40TPVUALTPT-56">
          <mxGeometry width="150" height="85" as="geometry" />
        </mxCell>
        <mxCell id="rcUIBdEVP40TPVUALTPT-58" value="PRIVATE" style="rounded=0;whiteSpace=wrap;html=1;verticalAlign=top;align=left;" vertex="1" parent="rcUIBdEVP40TPVUALTPT-56">
          <mxGeometry y="75" width="150" height="85" as="geometry" />
        </mxCell>
        <mxCell id="rcUIBdEVP40TPVUALTPT-59" value="PRIVATE" style="rounded=0;whiteSpace=wrap;html=1;verticalAlign=top;align=left;" vertex="1" parent="rcUIBdEVP40TPVUALTPT-56">
          <mxGeometry y="160" width="150" height="85" as="geometry" />
        </mxCell>
        <mxCell id="rcUIBdEVP40TPVUALTPT-60" value="" style="outlineConnect=0;dashed=0;verticalLabelPosition=bottom;verticalAlign=top;align=center;html=1;shape=mxgraph.aws3.vpn_gateway;fillColor=#F58534;gradientColor=none;" vertex="1" parent="rcUIBdEVP40TPVUALTPT-56">
          <mxGeometry x="55" y="14.5" width="39" height="36" as="geometry" />
        </mxCell>
        <mxCell id="rcUIBdEVP40TPVUALTPT-61" value="" style="shape=process;whiteSpace=wrap;html=1;backgroundOutline=1;" vertex="1" parent="rcUIBdEVP40TPVUALTPT-56">
          <mxGeometry x="25" y="114" width="30" height="19" as="geometry" />
        </mxCell>
        <mxCell id="rcUIBdEVP40TPVUALTPT-62" value="" style="shape=process;whiteSpace=wrap;html=1;backgroundOutline=1;" vertex="1" parent="rcUIBdEVP40TPVUALTPT-56">
          <mxGeometry x="75" y="114" width="30" height="19" as="geometry" />
        </mxCell>
        <mxCell id="rcUIBdEVP40TPVUALTPT-63" value="" style="sketch=0;outlineConnect=0;fontColor=#232F3E;gradientColor=none;fillColor=#C925D1;strokeColor=none;dashed=0;verticalLabelPosition=bottom;verticalAlign=top;align=center;html=1;fontSize=12;fontStyle=0;aspect=fixed;pointerEvents=1;shape=mxgraph.aws4.cache_node;" vertex="1" parent="rcUIBdEVP40TPVUALTPT-56">
          <mxGeometry x="8" y="198" width="30" height="30" as="geometry" />
        </mxCell>
        <mxCell id="rcUIBdEVP40TPVUALTPT-64" value="" style="strokeWidth=2;html=1;shape=mxgraph.flowchart.database;whiteSpace=wrap;" vertex="1" parent="rcUIBdEVP40TPVUALTPT-56">
          <mxGeometry x="47" y="191" width="30" height="40" as="geometry" />
        </mxCell>
        <mxCell id="rcUIBdEVP40TPVUALTPT-65" value="Security" style="html=1;whiteSpace=wrap;strokeColor=none;fillColor=#0079D6;labelPosition=center;verticalLabelPosition=middle;verticalAlign=top;align=center;fontSize=12;outlineConnect=0;spacingTop=-6;fontColor=#FFFFFF;sketch=0;shape=mxgraph.sitemap.security;" vertex="1" parent="rcUIBdEVP40TPVUALTPT-56">
          <mxGeometry x="85" y="190" width="55" height="40" as="geometry" />
        </mxCell>
        <mxCell id="rcUIBdEVP40TPVUALTPT-70" style="edgeStyle=orthogonalEdgeStyle;rounded=0;orthogonalLoop=1;jettySize=auto;html=1;" edge="1" parent="1" source="rcUIBdEVP40TPVUALTPT-60" target="rcUIBdEVP40TPVUALTPT-3">
          <mxGeometry relative="1" as="geometry" />
        </mxCell>
        <mxCell id="rcUIBdEVP40TPVUALTPT-71" style="edgeStyle=orthogonalEdgeStyle;rounded=0;orthogonalLoop=1;jettySize=auto;html=1;entryX=0.5;entryY=0;entryDx=0;entryDy=0;entryPerimeter=0;" edge="1" parent="1" source="rcUIBdEVP40TPVUALTPT-45" target="rcUIBdEVP40TPVUALTPT-3">
          <mxGeometry relative="1" as="geometry">
            <Array as="points">
              <mxPoint x="585" y="200" />
              <mxPoint x="1067" y="200" />
            </Array>
          </mxGeometry>
        </mxCell>
        <mxCell id="rcUIBdEVP40TPVUALTPT-75" value="" style="edgeStyle=orthogonalEdgeStyle;rounded=0;orthogonalLoop=1;jettySize=auto;html=1;" edge="1" parent="1" source="rcUIBdEVP40TPVUALTPT-72" target="rcUIBdEVP40TPVUALTPT-73">
          <mxGeometry relative="1" as="geometry" />
        </mxCell>
        <mxCell id="rcUIBdEVP40TPVUALTPT-72" value="" style="image;aspect=fixed;html=1;points=[];align=center;fontSize=12;image=img/lib/azure2/compute/Function_Apps.svg;" vertex="1" parent="1">
          <mxGeometry x="682" y="397" width="68" height="60" as="geometry" />
        </mxCell>
        <mxCell id="rcUIBdEVP40TPVUALTPT-79" style="edgeStyle=orthogonalEdgeStyle;rounded=0;orthogonalLoop=1;jettySize=auto;html=1;" edge="1" parent="1" source="rcUIBdEVP40TPVUALTPT-73" target="rcUIBdEVP40TPVUALTPT-76">
          <mxGeometry relative="1" as="geometry" />
        </mxCell>
        <mxCell id="rcUIBdEVP40TPVUALTPT-73" value="" style="image;aspect=fixed;html=1;points=[];align=center;fontSize=12;image=img/lib/azure2/other/Container_App_Environments.svg;" vertex="1" parent="1">
          <mxGeometry x="683" y="509" width="68" height="68" as="geometry" />
        </mxCell>
        <mxCell id="rcUIBdEVP40TPVUALTPT-76" value="" style="image;aspect=fixed;html=1;points=[];align=center;fontSize=12;image=img/lib/azure2/containers/Container_Registries.svg;" vertex="1" parent="1">
          <mxGeometry x="813" y="513" width="68" height="61" as="geometry" />
        </mxCell>
        <mxCell id="rcUIBdEVP40TPVUALTPT-77" value="" style="sketch=0;outlineConnect=0;fontColor=#232F3E;gradientColor=none;fillColor=#C925D1;strokeColor=none;dashed=0;verticalLabelPosition=bottom;verticalAlign=top;align=center;html=1;fontSize=12;fontStyle=0;aspect=fixed;pointerEvents=1;shape=mxgraph.aws4.rds_multi_az_db_cluster;" vertex="1" parent="1">
          <mxGeometry x="290" y="547" width="78" height="78" as="geometry" />
        </mxCell>
        <mxCell id="rcUIBdEVP40TPVUALTPT-119" style="edgeStyle=orthogonalEdgeStyle;rounded=0;orthogonalLoop=1;jettySize=auto;html=1;exitX=1;exitY=0.5;exitDx=0;exitDy=0;" edge="1" parent="1" source="rcUIBdEVP40TPVUALTPT-80" target="rcUIBdEVP40TPVUALTPT-81">
          <mxGeometry relative="1" as="geometry" />
        </mxCell>
        <mxCell id="rcUIBdEVP40TPVUALTPT-80" value="Monitoring / Logging" style="rounded=0;whiteSpace=wrap;html=1;verticalAlign=top;align=left;" vertex="1" parent="1">
          <mxGeometry x="306" y="650" width="274" height="140" as="geometry" />
        </mxCell>
        <mxCell id="rcUIBdEVP40TPVUALTPT-81" value="Security / Compliance" style="rounded=0;whiteSpace=wrap;html=1;verticalAlign=top;align=left;" vertex="1" parent="1">
          <mxGeometry x="640" y="650" width="274" height="140" as="geometry" />
        </mxCell>
        <mxCell id="rcUIBdEVP40TPVUALTPT-83" value="" style="sketch=0;outlineConnect=0;fontColor=#232F3E;gradientColor=none;fillColor=#232F3D;strokeColor=none;dashed=0;verticalLabelPosition=bottom;verticalAlign=top;align=center;html=1;fontSize=12;fontStyle=0;aspect=fixed;pointerEvents=1;shape=mxgraph.aws4.git_repository;" vertex="1" parent="1">
          <mxGeometry x="50" y="650" width="60" height="78" as="geometry" />
        </mxCell>
        <mxCell id="rcUIBdEVP40TPVUALTPT-89" value="" style="edgeStyle=orthogonalEdgeStyle;rounded=0;orthogonalLoop=1;jettySize=auto;html=1;" edge="1" parent="1" source="rcUIBdEVP40TPVUALTPT-84" target="rcUIBdEVP40TPVUALTPT-86">
          <mxGeometry relative="1" as="geometry" />
        </mxCell>
        <mxCell id="rcUIBdEVP40TPVUALTPT-84" value="" style="verticalLabelPosition=bottom;html=1;verticalAlign=top;align=center;strokeColor=none;fillColor=#00BEF2;shape=mxgraph.azure.storage_blob;" vertex="1" parent="1">
          <mxGeometry x="170" y="666.5" width="50" height="45" as="geometry" />
        </mxCell>
        <mxCell id="rcUIBdEVP40TPVUALTPT-85" style="edgeStyle=orthogonalEdgeStyle;rounded=0;orthogonalLoop=1;jettySize=auto;html=1;entryX=0;entryY=0.5;entryDx=0;entryDy=0;entryPerimeter=0;" edge="1" parent="1" source="rcUIBdEVP40TPVUALTPT-83" target="rcUIBdEVP40TPVUALTPT-84">
          <mxGeometry relative="1" as="geometry" />
        </mxCell>
        <mxCell id="rcUIBdEVP40TPVUALTPT-86" value="" style="image;aspect=fixed;html=1;points=[];align=center;fontSize=12;image=img/lib/azure2/security/Key_Vaults.svg;" vertex="1" parent="1">
          <mxGeometry x="161" y="571" width="68" height="68" as="geometry" />
        </mxCell>
        <mxCell id="rcUIBdEVP40TPVUALTPT-110" value="" style="edgeStyle=orthogonalEdgeStyle;rounded=0;orthogonalLoop=1;jettySize=auto;html=1;" edge="1" parent="1" source="rcUIBdEVP40TPVUALTPT-94" target="rcUIBdEVP40TPVUALTPT-77">
          <mxGeometry relative="1" as="geometry" />
        </mxCell>
        <mxCell id="rcUIBdEVP40TPVUALTPT-111" value="" style="edgeStyle=orthogonalEdgeStyle;rounded=0;orthogonalLoop=1;jettySize=auto;html=1;" edge="1" parent="1" source="rcUIBdEVP40TPVUALTPT-94" target="rcUIBdEVP40TPVUALTPT-80">
          <mxGeometry relative="1" as="geometry" />
        </mxCell>
        <mxCell id="rcUIBdEVP40TPVUALTPT-94" value="" style="image;aspect=fixed;html=1;points=[];align=center;fontSize=12;image=img/lib/azure2/networking/Private_Link.svg;" vertex="1" parent="1">
          <mxGeometry x="418.8200000000001" y="562" width="50.18" height="46" as="geometry" />
        </mxCell>
        <mxCell id="rcUIBdEVP40TPVUALTPT-101" style="edgeStyle=orthogonalEdgeStyle;rounded=0;orthogonalLoop=1;jettySize=auto;html=1;" edge="1" parent="1" source="rcUIBdEVP40TPVUALTPT-95" target="rcUIBdEVP40TPVUALTPT-39">
          <mxGeometry relative="1" as="geometry" />
        </mxCell>
        <mxCell id="rcUIBdEVP40TPVUALTPT-95" value="" style="image;aspect=fixed;html=1;points=[];align=center;fontSize=12;image=img/lib/azure2/networking/Private_Link.svg;" vertex="1" parent="1">
          <mxGeometry x="303" y="136" width="50.18" height="46" as="geometry" />
        </mxCell>
        <mxCell id="rcUIBdEVP40TPVUALTPT-104" style="edgeStyle=orthogonalEdgeStyle;rounded=0;orthogonalLoop=1;jettySize=auto;html=1;entryX=1;entryY=0.5;entryDx=0;entryDy=0;" edge="1" parent="1" source="rcUIBdEVP40TPVUALTPT-39" target="rcUIBdEVP40TPVUALTPT-43">
          <mxGeometry relative="1" as="geometry">
            <Array as="points">
              <mxPoint x="715" y="360" />
            </Array>
          </mxGeometry>
        </mxCell>
        <mxCell id="rcUIBdEVP40TPVUALTPT-107" style="edgeStyle=orthogonalEdgeStyle;rounded=0;orthogonalLoop=1;jettySize=auto;html=1;entryX=0;entryY=0.5;entryDx=0;entryDy=0;" edge="1" parent="1">
          <mxGeometry relative="1" as="geometry">
            <mxPoint x="660" y="357.0000000000002" as="sourcePoint" />
            <mxPoint x="772" y="359.5" as="targetPoint" />
            <Array as="points">
              <mxPoint x="660" y="360" />
            </Array>
          </mxGeometry>
        </mxCell>
        <mxCell id="rcUIBdEVP40TPVUALTPT-109" style="edgeStyle=orthogonalEdgeStyle;rounded=0;orthogonalLoop=1;jettySize=auto;html=1;exitX=0;exitY=0.5;exitDx=0;exitDy=0;" edge="1" parent="1" source="rcUIBdEVP40TPVUALTPT-93" target="rcUIBdEVP40TPVUALTPT-94">
          <mxGeometry relative="1" as="geometry" />
        </mxCell>
        <mxCell id="rcUIBdEVP40TPVUALTPT-112" value="" style="image;aspect=fixed;html=1;points=[];align=center;fontSize=12;image=img/lib/azure2/analytics/Log_Analytics_Workspaces.svg;" vertex="1" parent="1">
          <mxGeometry x="331" y="700" width="64" height="64" as="geometry" />
        </mxCell>
        <mxCell id="rcUIBdEVP40TPVUALTPT-113" value="" style="sketch=0;points=[[0,0,0],[0.25,0,0],[0.5,0,0],[0.75,0,0],[1,0,0],[0,1,0],[0.25,1,0],[0.5,1,0],[0.75,1,0],[1,1,0],[0,0.25,0],[0,0.5,0],[0,0.75,0],[1,0.25,0],[1,0.5,0],[1,0.75,0]];points=[[0,0,0],[0.25,0,0],[0.5,0,0],[0.75,0,0],[1,0,0],[0,1,0],[0.25,1,0],[0.5,1,0],[0.75,1,0],[1,1,0],[0,0.25,0],[0,0.5,0],[0,0.75,0],[1,0.25,0],[1,0.5,0],[1,0.75,0]];outlineConnect=0;fontColor=#232F3E;fillColor=#E7157B;strokeColor=#ffffff;dashed=0;verticalLabelPosition=bottom;verticalAlign=top;align=center;html=1;fontSize=12;fontStyle=0;aspect=fixed;shape=mxgraph.aws4.resourceIcon;resIcon=mxgraph.aws4.managed_service_for_grafana;" vertex="1" parent="1">
          <mxGeometry x="404" y="693" width="78" height="78" as="geometry" />
        </mxCell>
        <mxCell id="rcUIBdEVP40TPVUALTPT-115" value="" style="verticalLabelPosition=bottom;html=1;verticalAlign=top;align=center;strokeColor=none;fillColor=#00BEF2;shape=mxgraph.azure.health_monitoring;" vertex="1" parent="1">
          <mxGeometry x="506" y="711" width="50" height="42.5" as="geometry" />
        </mxCell>
        <mxCell id="rcUIBdEVP40TPVUALTPT-116" value="" style="image;aspect=fixed;html=1;points=[];align=center;fontSize=12;image=img/lib/azure2/security/Azure_Sentinel.svg;" vertex="1" parent="1">
          <mxGeometry x="670" y="700" width="56.00000000000001" height="68" as="geometry" />
        </mxCell>
        <mxCell id="rcUIBdEVP40TPVUALTPT-117" value="" style="image;aspect=fixed;html=1;points=[];align=center;fontSize=12;image=img/lib/azure2/management_governance/Blueprints.svg;" vertex="1" parent="1">
          <mxGeometry x="740" y="702" width="65" height="64" as="geometry" />
        </mxCell>
        <mxCell id="rcUIBdEVP40TPVUALTPT-118" value="" style="image;aspect=fixed;html=1;points=[];align=center;fontSize=12;image=img/lib/azure2/security/Key_Vaults.svg;" vertex="1" parent="1">
          <mxGeometry x="820" y="693" width="68" height="68" as="geometry" />
        </mxCell>
      </root>
    </mxGraphModel>
  </diagram>
</mxfile>
